<?xml version="1.0" standalone="no"?>
<!DOCTYPE svg PUBLIC "-//W3C//DTD SVG 20010904//EN"
 "http://www.w3.org/TR/2001/REC-SVG-20010904/DTD/svg10.dtd">
<svg version="1.0" xmlns="http://www.w3.org/2000/svg"
 width="700.000000pt" height="700.000000pt" viewBox="0 0 700.000000 700.000000"
 preserveAspectRatio="xMidYMid meet">
<metadata>
Created by potrace 1.14, written by Peter Selinger 2001-2017
</metadata>
<g transform="translate(0.000000,700.000000) scale(0.100000,-0.100000)"
fill="#000000" stroke="none">
<path d="M5055 5633 c-96 -16 -175 -43 -270 -93 -61 -31 -344 -204 -630 -385
-286 -180 -641 -404 -790 -497 -283 -178 -315 -198 -380 -240 -76 -49 -919
-580 -1110 -699 -173 -108 -183 -116 -194 -156 -11 -39 11 -88 49 -109 201
-110 351 -204 344 -215 -3 -5 -112 -75 -242 -155 -424 -263 -454 -286 -537
-414 -60 -91 -113 -221 -134 -330 -18 -90 -16 -275 5 -360 2 -8 9 -37 15 -65
6 -27 15 -54 20 -59 5 -6 9 -16 9 -22 0 -22 61 -147 106 -216 51 -79 159 -196
229 -248 243 -179 562 -234 825 -142 124 43 194 88 431 277 96 77 192 154 213
170 22 17 87 68 146 115 58 47 124 99 145 115 21 17 72 57 114 91 42 33 243
193 446 354 204 161 453 360 555 440 102 81 246 196 320 254 74 59 149 118
165 132 17 13 59 47 95 75 36 28 74 58 85 67 11 10 40 33 65 52 25 19 52 40
60 47 119 96 312 249 415 328 241 187 385 353 454 526 16 41 32 85 35 99 3 14
8 36 11 50 14 58 6 207 -14 290 -92 369 -329 663 -665 825 -158 75 -305 112
-391 98z"/>
</g>
</svg>
